# xmcd
#
# Track frame offsets: 
#        150
#        18162
#        33142
#        48512
#        62081
#        82802
#        99304
#        116366
#        130067
#        148883
#        164788
#        182451
#        197383
#        218302
#        237355
#        251471
#        273448
#        290444
#
# Disc length: 4055 seconds
#
# Revision: 0
# Processed by: cddbd v1.5.2PL0 Copyright (c) Steve Scherf et al.
# Submitted via: ExactAudioCopy v1.2
#
DISCID=ed0fd512
DTITLE=Charlie Landsborough - The Very Best Of, CD1
DYEAR=2011
DGENRE=Country
TTITLE0=What Colour Is The Wind
TTITLE1=Down To Earth
TTITLE2=Part Of Me
TTITLE3=Some Mother's Son
TTITLE4=If Only
TTITLE5=Blue Umbrella
TTITLE6=Smile
TTITLE7=Passing Through
TTITLE8=If Only I Had Wings
TTITLE9=Saviour's Song
TTITLE10=Like Rain
TTITLE11=What Happened To Love
TTITLE12=Fog On The River
TTITLE13=My Heart Would Know
TTITLE14=Loreto
TTITLE15=Not A Day Goes By
TTITLE16=When You're Not A Dream
TTITLE17=Here There And Everywhere
EXTD=
EXTT0=
EXTT1=
EXTT2=
EXTT3=
EXTT4=
EXTT5=
EXTT6=
EXTT7=
EXTT8=
EXTT9=
EXTT10=
EXTT11=
EXTT12=
EXTT13=
EXTT14=
EXTT15=
EXTT16=
EXTT17=
PLAYORDER=
